<?xml version="1.0" encoding="UTF-8" standalone="no"?>
<svg
   xmlns:svg="http://www.w3.org/2000/svg"
   xmlns="http://www.w3.org/2000/svg"
   width="35.113163mm"
   height="49.673515mm"
   viewBox="0 0 35.113163 49.673515"
   version="1.1">
  <g
     transform="translate(-43.708154,-114.41598)">
    <path
       style="fill:#ffffff;fill-opacity:1;stroke:#000000;stroke-width:3.77952766;stroke-linecap:butt;stroke-linejoin:round;stroke-miterlimit:4;stroke-dasharray:none;stroke-opacity:1"
       d="m 167.08594,434.32812 v 24.39649 135.17187 24.39454 h 24.39453 24.53711 55.60547 c 13.51493,0 24.39453,-10.87959 24.39453,-24.39454 V 458.72461 c 0,-13.51495 -10.8796,-24.39649 -24.39453,-24.39649 h -55.60547 -24.53711 z"
       transform="scale(0.26458333)"
       />
    <path
       style="fill:#ffffff;fill-opacity:1;stroke:#000000;stroke-width:1;stroke-linecap:butt;stroke-linejoin:round;stroke-miterlimit:4;stroke-dasharray:none;stroke-opacity:1"
       d="m 64.598639,122.93615 a 6.2578323,6.2578323 0 0 0 -4.718058,2.15387 3.6750191,3.6750191 0 0 0 -2.796728,-1.29656 3.6750191,3.6750191 0 0 0 -3.667476,3.52589 5.5562499,5.5562499 0 0 0 -4.600753,5.47253 5.5562499,5.5562499 0 0 0 5.252911,5.54126 v 0.015 h 0.303339 14.102498 v -0.009 a 4.4639224,4.4639224 0 0 0 0.185002,0.009 4.4639224,4.4639224 0 0 0 4.463809,-4.46381 4.4639224,4.4639224 0 0 0 -2.320787,-3.91552 6.2578323,6.2578323 0 0 0 0.05374,-0.77463 6.2578323,6.2578323 0 0 0 -6.257499,-6.25802 z"
       />
    <path
       style="fill:none;stroke:#000000;stroke-width:1;stroke-linecap:round;stroke-linejoin:miter;stroke-miterlimit:4;stroke-dasharray:none;stroke-opacity:1"
       d="M 50.320004,150.50957 H 72.209377"
       />
    <path
       d="M 50.320004,145.74707 H 72.209377"
       style="fill:none;stroke:#000000;stroke-width:1;stroke-linecap:round;stroke-linejoin:miter;stroke-miterlimit:4;stroke-dasharray:none;stroke-opacity:1" />
    <path
       style="fill:none;stroke:#000000;stroke-width:1;stroke-linecap:round;stroke-linejoin:miter;stroke-miterlimit:4;stroke-dasharray:none;stroke-opacity:1"
       d="m 58.875398,157.38875 h 4.778585"
       />
  </g>
</svg>
