<?xml version="1.0" standalone="no"?>
<!DOCTYPE svg PUBLIC "-//W3C//DTD SVG 20010904//EN"
 "http://www.w3.org/TR/2001/REC-SVG-20010904/DTD/svg10.dtd">
<svg version="1.0" xmlns="http://www.w3.org/2000/svg"
 width="597.000000pt" height="597.000000pt" viewBox="0 0 597.000000 597.000000"
 preserveAspectRatio="xMidYMid meet">
<metadata>
Created by potrace 1.11, written by Peter Selinger 2001-2013
</metadata>
<g transform="translate(0.000000,597.000000) scale(0.100000,-0.100000)"
fill="#000000" stroke="none">
<path d="M485 4803 c3 -153 7 -386 10 -518 2 -132 8 -402 11 -600 9 -474 9
-811 0 -1315 -4 -228 -9 -521 -11 -650 -3 -129 -7 -369 -10 -532 l-5 -298 373
5 c312 5 834 13 887 15 13 0 15 32 14 227 l0 228 -140 -1 c-76 -1 -224 -3
-328 -5 -169 -4 -189 -2 -191 12 -2 9 -6 216 -10 460 -4 244 -9 516 -11 604
-4 211 -4 957 0 1160 2 88 7 336 11 550 4 215 8 408 9 430 l1 40 80 -1 c44 -1
186 -5 315 -8 l236 -7 0 230 0 231 -65 1 c-37 0 -140 2 -231 4 -91 2 -342 6
-558 9 l-392 7 5 -278z"/>
<path d="M4917 5073 c-2 -1 -140 -4 -307 -7 -168 -2 -321 -5 -341 -5 l-35 -1
0 -231 0 -231 220 7 c122 4 263 8 314 10 87 2 92 1 97 -19 2 -11 7 -196 10
-411 3 -214 8 -471 10 -570 6 -223 6 -971 1 -1200 -3 -93 -8 -359 -11 -590 -4
-231 -8 -431 -9 -445 -1 -29 33 -28 -411 -16 l-250 6 0 -225 c1 -123 3 -227 7
-230 5 -6 133 -9 905 -20 l363 -5 -5 303 c-3 166 -7 408 -10 537 -2 129 -7
404 -11 610 -9 486 -9 885 0 1350 4 206 9 476 11 600 2 124 7 352 10 508 l6
282 -281 -2 c-155 -2 -282 -4 -283 -5z"/>
<path d="M2875 3544 c-65 -15 -111 -28 -120 -34 -5 -4 -25 -12 -43 -18 -74
-25 -181 -111 -249 -202 -227 -300 -138 -738 189 -932 181 -107 417 -116 605
-23 153 76 255 190 325 360 59 145 36 406 -47 527 -14 20 -25 41 -25 45 0 13
-110 127 -157 162 -51 39 -150 84 -223 103 -53 14 -214 21 -255 12z"/>
</g>
</svg>
