<?xml version="1.0" encoding="UTF-8" standalone="no"?>
<!-- Created with Inkscape (http://www.inkscape.org/) -->

<svg
   xmlns:dc="http://purl.org/dc/elements/1.1/"
   xmlns:cc="http://creativecommons.org/ns#"
   xmlns:rdf="http://www.w3.org/1999/02/22-rdf-syntax-ns#"
   xmlns:svg="http://www.w3.org/2000/svg"
   xmlns="http://www.w3.org/2000/svg"
   xmlns:sodipodi="http://sodipodi.sourceforge.net/DTD/sodipodi-0.dtd"
   xmlns:inkscape="http://www.inkscape.org/namespaces/inkscape"
   width="120.34975mm"
   height="230.91074mm"
   viewBox="0 0 120.34975 230.91074"
   version="1.1"
   id="svg8"
   inkscape:version="0.92.1 r15371"
   sodipodi:docname="blue-oak.svg">
  <defs
     id="defs2" />
  <sodipodi:namedview
     id="base"
     pagecolor="#ffffff"
     bordercolor="#666666"
     borderopacity="1.0"
     inkscape:pageopacity="0.0"
     inkscape:pageshadow="2"
     inkscape:zoom="0.49497475"
     inkscape:cx="-208.69711"
     inkscape:cy="386.76406"
     inkscape:document-units="mm"
     inkscape:current-layer="g4547"
     showgrid="false"
     inkscape:window-width="1598"
     inkscape:window-height="881"
     inkscape:window-x="0"
     inkscape:window-y="0"
     inkscape:window-maximized="0"
     fit-margin-top="10"
     fit-margin-left="10"
     fit-margin-right="10"
     fit-margin-bottom="10" />
  <metadata
     id="metadata5">
    <rdf:RDF>
      <cc:Work
         rdf:about="">
        <dc:format>image/svg+xml</dc:format>
        <dc:type
           rdf:resource="http://purl.org/dc/dcmitype/StillImage" />
        <dc:title></dc:title>
      </cc:Work>
    </rdf:RDF>
  </metadata>
  <g
     inkscape:label="Layer 1"
     inkscape:groupmode="layer"
     id="layer1"
     transform="translate(-32.212784,-32.031117)">
    <path
       style="fill:#007788;fill-opacity:1;stroke:none;stroke-width:0.26458332px;stroke-linecap:butt;stroke-linejoin:miter;stroke-opacity:1"
       d="m 84.546114,42.031117 c 10.20536,0 15.11905,9.827385 15.11905,9.827385 l 3.023806,-4.535718 c 0,0 28.72619,15.874998 18.14286,63.499996 l 12.09524,-12.095238 c 0,0 21.16667,29.104188 0.75595,61.988118 h 8.31548 c -10.58334,76.72917 -50.270826,72.19346 -59.720236,92.22619 -5.66964,-17.76488 -27.59226,-19.65476 -40.06548,-97.51785 l 11.33929,-0.75596 c 0,0 -7.9375,-38.17562 -2.26786,-47.62502 h 13.60714 C 54.686004,95.703732 61.867544,66.977542 61.867544,66.977542 h 9.82738 c -3.02381,-9.82738 12.85119,-24.946425 12.85119,-24.946425 z"
       id="path4531"
       inkscape:connector-curvature="0"
       sodipodi:nodetypes="ccccccccccccccc" />
    <g
       id="g4547"
       transform="translate(269.93301,-69.046377)">
      <g
         id="g4551"
         transform="rotate(8.4991942,-223.92714,232.81585)">
        <path
           style="fill:#fffff4;fill-opacity:1;stroke:#000000;stroke-width:5;stroke-linecap:butt;stroke-linejoin:miter;stroke-miterlimit:4;stroke-dasharray:none;stroke-opacity:1"
           d="m -175.86335,288.5011 c 5.29167,-7.9375 22.63407,-4.55293 20.36621,-75.42347 h -42.33603 c -3.02381,71.05952 15.54422,65.21807 21.96982,75.42343 z"
           id="path4541"
           inkscape:connector-curvature="0"
           sodipodi:nodetypes="ccccc" />
        <path
           style="fill:#000001;fill-opacity:1;stroke:none;stroke-width:0.26458332px;stroke-linecap:butt;stroke-linejoin:miter;stroke-opacity:1"
           d="m -150.20547,215.72321 -52.91937,0.0107 c 0,0 -17.09047,-19.40457 10.69078,-35.27957 h 32.07234 c 24.19048,13.04018 10.15625,35.26883 10.15625,35.26883 z"
           id="path4543"
           inkscape:connector-curvature="0"
           sodipodi:nodetypes="ccccc" />
      </g>
    </g>
  </g>
</svg>
