<?xml version="1.0" encoding="UTF-8" standalone="no"?>
<svg
   xmlns:dc="http://purl.org/dc/elements/1.1/"
   xmlns:cc="http://creativecommons.org/ns#"
   xmlns:rdf="http://www.w3.org/1999/02/22-rdf-syntax-ns#"
   xmlns:svg="http://www.w3.org/2000/svg"
   xmlns="http://www.w3.org/2000/svg"
   xmlns:xlink="http://www.w3.org/1999/xlink"
   xmlns:sodipodi="http://sodipodi.sourceforge.net/DTD/sodipodi-0.dtd"
   xmlns:inkscape="http://www.inkscape.org/namespaces/inkscape"
   width="24px"
   height="24px"
   version="1.1"
   id="svg1184"
   sodipodi:docname="fairshake.svg"
   inkscape:version="0.92.4 (5da689c313, 2019-01-14)">
  <metadata
     id="metadata1190">
    <rdf:RDF>
      <cc:Work
         rdf:about="">
        <dc:format>image/svg+xml</dc:format>
        <dc:type
           rdf:resource="http://purl.org/dc/dcmitype/StillImage" />
      </cc:Work>
    </rdf:RDF>
  </metadata>
  <defs
     id="defs1188" />
  <sodipodi:namedview
     pagecolor="#ffffff"
     bordercolor="#666666"
     borderopacity="1"
     objecttolerance="10"
     gridtolerance="10"
     guidetolerance="10"
     inkscape:pageopacity="0"
     inkscape:pageshadow="2"
     inkscape:window-width="1920"
     inkscape:window-height="1061"
     id="namedview1186"
     showgrid="false"
     inkscape:zoom="25.83886"
     inkscape:cx="21.221295"
     inkscape:cy="14.481387"
     inkscape:window-x="0"
     inkscape:window-y="0"
     inkscape:window-maximized="0"
     inkscape:current-layer="svg1184" />
  <circle
     r="11px"
     fill="transparent"
     cx="50%"
     cy="50%"
     id="circle1180"
     stroke-width="0.5"
     stroke="black"
     style="fill:#ffffff;fill-opacity:1" />
  <g
     id="g1202"
     transform="translate(0.469041,1.1159817)"
     style="stroke:none;stroke-opacity:1;fill:#000000;fill-opacity:1">
    <g
       transform="matrix(1.2325718,0,0,1.2325718,-40.07335,-3.6046162)"
       id="text1182"
       style="dominant-baseline:central;text-anchor:middle;fill:#000000;fill-opacity:1;stroke:none;stroke-opacity:1"
       aria-label="🖒">
      <path
         inkscape:connector-curvature="0"
         id="path1194"
         style="font-style:normal;font-variant:normal;font-weight:normal;font-stretch:normal;font-family:'Noto Color Emoji';-inkscape-font-specification:'Noto Color Emoji';fill:#000000;fill-opacity:1;stroke:none;stroke-opacity:1"
         d="m 40.84436,12.288003 q 0,0.416016 -0.322265,0.755859 0.128906,0.205078 0.128906,0.386719 0,0.451172 -0.474609,0.580078 0.01758,0.09961 0.01758,0.169922 0,0.544922 -0.632813,0.597656 0.01172,0.07031 0.01172,0.111328 0,0.609375 -1.013672,0.609375 H 38.453738 L 38.24866,15.393472 q -0.386719,0.105468 -0.679687,0.105468 -0.111328,0 -0.328125,-0.01758 -0.703125,-0.322265 -1.306641,-1.013672 H 35.06116 q -0.287109,-0.697265 -0.287109,-1.388671 0,-0.708985 0.316406,-1.382813 0.07031,0 0.222656,0.0059 0.152344,0.0059 0.228516,0.0059 0.427734,0 0.580078,-0.09375 0.123047,-0.07617 0.451172,-0.533203 0.386719,-0.527344 0.46875,-0.615235 L 38.13147,9.3114405 38.424438,8.0106592 q 0.539063,0.1347656 0.785157,0.3515625 0.304687,0.2695313 0.304687,0.7792969 0,0.3046875 -0.398437,1.0605464 -0.257813,0.486329 -0.328125,1.019532 2.05664,0 2.05664,1.066406 z m -0.298828,-0.03516 q 0,-0.744141 -2.074219,-0.744141 0.0293,-0.873047 0.462891,-1.6171874 0.275391,-0.4746094 0.275391,-0.75 0,-0.5507813 -0.585938,-0.75 l -0.234375,1.0839844 -1.177734,1.253906 q -0.123047,0.128906 -0.451172,0.580078 -0.357422,0.492188 -0.556641,0.597657 -0.193359,0.105468 -0.761718,0.105468 h -0.169922 q -0.199219,0.556641 -0.199219,1.13086 0,0.486328 0.181641,1.019531 h 0.808593 q 0.498047,0.662109 1.253907,1.083984 0.322265,-0.01172 0.474609,-0.0293 0.263672,-0.04101 0.457031,-0.134765 0.257813,0.140625 0.457031,0.140625 0.574219,0 0.574219,-0.439453 0,-0.128907 -0.01758,-0.28711 0.650391,0 0.650391,-0.351562 0,-0.08203 -0.05273,-0.333985 0.480469,-0.09961 0.480469,-0.363281 0,-0.164062 -0.216797,-0.439453 0.421875,-0.369141 0.421875,-0.755859 z" />
    </g>
    <use
       style="fill:#000000;fill-opacity:1;stroke:none;stroke-opacity:1"
       height="100%"
       width="100%"
       transform="matrix(-1,0,0,1,23.061918,0)"
       id="use1197"
       xlink:href="#text1182"
       y="0"
       x="0" />
  </g>
</svg>
