<?xml version="1.0" encoding="UTF-8" standalone="no"?>
<svg xmlns="http://www.w3.org/2000/svg" width="500" height="419.02228" version="1.1">
  <g transform="translate(-130.28417,-323.4416)">
    <path d="m 254.85837,371.57253 0,-46.24344 -124.5742,-1.88749 3.77497,204.79242 -3.77497,214.22987 127.40543,-1.88749 0,-46.24344 -66.06208,1.88748 -2.83123,-166.57079 2.83123,-159.96461 63.23085,1.88749" />
    <path d="m 315.79621,540.50271 c 0,35.39035 28.78422,64.17457 64.17459,64.17457 35.39036,0 64.1746,-28.78422 64.1746,-64.17457 0,-35.39037 -28.78424,-64.1746 -64.1746,-64.1746 -35.39037,0 -64.17459,28.78423 -64.17459,64.1746" />
    <path d="m 568.94078,369.68504 2.83125,159.96461 -2.83125,166.57079 -66.06206,-1.88748 0,46.24344 127.40545,1.88749 -3.77498,-214.22987 3.77498,-204.79242 -124.57423,1.88749 0,46.24344 63.23084,-1.88749" />
  </g>
</svg>
